<mxfile host="app.diagrams.net" modified="2023-02-08T09:21:09.945Z" agent="5.0 (X11; Linux x86_64) AppleWebKit/537.36 (KHTML, like Gecko) Chrome/107.0.0.0 Safari/537.36 Edg/107.0.1418.62" etag="zLnXoBSTTVB6Pq1Wf1Ni" version="20.8.18" type="github">
  <diagram name="Page-1" id="-Af1AmIn1YWkAdTsbP9F">
    <mxGraphModel dx="793" dy="443" grid="1" gridSize="10" guides="1" tooltips="1" connect="1" arrows="1" fold="1" page="1" pageScale="1" pageWidth="850" pageHeight="1100" math="0" shadow="0">
      <root>
        <mxCell id="0" />
        <mxCell id="1" parent="0" />
        <mxCell id="wZCHoF_8fZqGmDs1OWUN-2" value="&lt;b&gt;&lt;font style=&quot;font-size: 24px;&quot;&gt;1 1 1 1 0 1 1 0 1&lt;/font&gt;&lt;/b&gt;" style="text;html=1;align=center;verticalAlign=middle;resizable=0;points=[];autosize=1;strokeColor=none;fillColor=none;" vertex="1" parent="1">
          <mxGeometry x="325" y="220" width="200" height="40" as="geometry" />
        </mxCell>
        <mxCell id="wZCHoF_8fZqGmDs1OWUN-4" value="" style="rounded=0;whiteSpace=wrap;html=1;strokeColor=none;fillColor=#B3FFA3;opacity=50;" vertex="1" parent="1">
          <mxGeometry x="333" y="222.5" width="60" height="35" as="geometry" />
        </mxCell>
        <mxCell id="wZCHoF_8fZqGmDs1OWUN-5" value="" style="rounded=0;whiteSpace=wrap;html=1;strokeColor=none;fillColor=#F19C99;opacity=50;" vertex="1" parent="1">
          <mxGeometry x="458" y="222.5" width="60" height="35" as="geometry" />
        </mxCell>
        <mxCell id="wZCHoF_8fZqGmDs1OWUN-6" value="" style="rounded=0;whiteSpace=wrap;html=1;strokeColor=none;fillColor=#FFF4C3;opacity=50;" vertex="1" parent="1">
          <mxGeometry x="395" y="222.5" width="60" height="35" as="geometry" />
        </mxCell>
        <mxCell id="wZCHoF_8fZqGmDs1OWUN-7" value="" style="strokeWidth=2;html=1;shape=mxgraph.flowchart.annotation_2;align=left;labelPosition=right;pointerEvents=1;fontSize=24;fillColor=#F19C99;direction=north;" vertex="1" parent="1">
          <mxGeometry x="340.5" y="260" width="45" height="30" as="geometry" />
        </mxCell>
        <mxCell id="wZCHoF_8fZqGmDs1OWUN-9" value="" style="strokeWidth=2;html=1;shape=mxgraph.flowchart.annotation_2;align=left;labelPosition=right;pointerEvents=1;fontSize=24;fillColor=#F19C99;direction=north;" vertex="1" parent="1">
          <mxGeometry x="465.5" y="260" width="45" height="30" as="geometry" />
        </mxCell>
        <mxCell id="wZCHoF_8fZqGmDs1OWUN-10" value="" style="strokeWidth=2;html=1;shape=mxgraph.flowchart.annotation_2;align=left;labelPosition=right;pointerEvents=1;fontSize=24;fillColor=#F19C99;direction=north;" vertex="1" parent="1">
          <mxGeometry x="402.5" y="260" width="45" height="30" as="geometry" />
        </mxCell>
        <mxCell id="wZCHoF_8fZqGmDs1OWUN-11" value="&lt;font style=&quot;font-size: 20px;&quot;&gt;&lt;b style=&quot;&quot;&gt;&lt;font color=&quot;#850000&quot;&gt;All&lt;/font&gt;&lt;/b&gt;&lt;br&gt;&lt;/font&gt;" style="text;html=1;strokeColor=none;fillColor=none;align=center;verticalAlign=middle;whiteSpace=wrap;rounded=0;fontSize=24;" vertex="1" parent="1">
          <mxGeometry x="458" y="290" width="60" height="30" as="geometry" />
        </mxCell>
        <mxCell id="wZCHoF_8fZqGmDs1OWUN-12" value="&lt;b&gt;&lt;font style=&quot;font-size: 20px;&quot;&gt;&lt;font color=&quot;#308017&quot;&gt;User&lt;/font&gt;&lt;/font&gt;&lt;/b&gt;" style="text;html=1;strokeColor=none;fillColor=none;align=center;verticalAlign=middle;whiteSpace=wrap;rounded=0;fontSize=24;" vertex="1" parent="1">
          <mxGeometry x="333" y="290" width="60" height="30" as="geometry" />
        </mxCell>
        <mxCell id="wZCHoF_8fZqGmDs1OWUN-13" value="&lt;font style=&quot;font-size: 20px;&quot;&gt;&lt;b style=&quot;&quot;&gt;&lt;font color=&quot;#a1a100&quot;&gt;Group&lt;/font&gt;&lt;/b&gt;&lt;br&gt;&lt;/font&gt;" style="text;html=1;strokeColor=none;fillColor=none;align=center;verticalAlign=middle;whiteSpace=wrap;rounded=0;fontSize=24;" vertex="1" parent="1">
          <mxGeometry x="395" y="290" width="60" height="30" as="geometry" />
        </mxCell>
        <mxCell id="wZCHoF_8fZqGmDs1OWUN-14" value="&lt;font style=&quot;font-size: 28px;&quot; color=&quot;#000000&quot;&gt;&lt;b&gt;r w x r - x r - x&lt;/b&gt;&lt;/font&gt;" style="text;html=1;strokeColor=none;fillColor=none;align=center;verticalAlign=middle;whiteSpace=wrap;rounded=0;fontSize=20;fontColor=#850000;" vertex="1" parent="1">
          <mxGeometry x="327" y="187" width="197" height="30" as="geometry" />
        </mxCell>
      </root>
    </mxGraphModel>
  </diagram>
</mxfile>
